<svg xmlns="http://www.w3.org/2000/svg" viewBox="0 0 24 24"><path fill="#00ADD8" d="M1.811 10.231c-.047 0-.058-.023-.035-.059l.246-.315c.023-.035.081-.058.128-.058h4.172c.046 0 .058.035.035.07l-.199.303c-.023.036-.082.07-.117.07H1.811zm-.105 2.357c-.047 0-.058-.024-.035-.059l.246-.315c.023-.035.081-.058.128-.058h4.691c.047 0 .059.035.036.058l-.199.315c-.024.035-.082.058-.117.058H1.706zm-.211 2.357c-.047 0-.058-.023-.035-.058l.245-.316c.024-.035.082-.058.129-.058h6.046c.047 0 .058.035.035.058l-.199.316c-.023.035-.081.058-.116.058H1.495z"/><path fill="#00ADD8" d="M12.257 13.722c-.024.059-.047.082-.105.082-.07 0-.14-.023-.163-.082L8.04 5.27c-.024-.058-.012-.105.035-.105h1.805c.07 0 .128.035.151.093l2.357 5.989 2.357-5.989c.024-.058.082-.093.152-.093h1.804c.047 0 .059.047.036.105l-3.95 8.452z"/></svg>